<mxfile host="Electron" modified="2023-11-14T08:46:35.414Z" agent="Mozilla/5.0 (Windows NT 10.0; Win64; x64) AppleWebKit/537.36 (KHTML, like Gecko) draw.io/22.0.3 Chrome/114.0.5735.289 Electron/25.8.4 Safari/537.36" etag="8h5n2CFjSiPd6xmmdvU2" version="22.0.3" type="device">
  <diagram name="Page-1" id="GaE-6jHVSexfpr_tjGxt">
    <mxGraphModel dx="989" dy="610" grid="1" gridSize="10" guides="1" tooltips="1" connect="1" arrows="1" fold="1" page="1" pageScale="1" pageWidth="850" pageHeight="1100" math="1" shadow="0">
      <root>
        <mxCell id="0" />
        <mxCell id="1" parent="0" />
        <mxCell id="RoRbaDoEYm9s6KzCHAqS-1" value="$$x_{1}$$" style="text;html=1;strokeColor=none;fillColor=none;align=center;verticalAlign=middle;whiteSpace=wrap;rounded=0;fontSize=14;" vertex="1" parent="1">
          <mxGeometry x="330" y="110" width="30" height="30" as="geometry" />
        </mxCell>
        <mxCell id="RoRbaDoEYm9s6KzCHAqS-2" value="$$x_{2}$$" style="text;html=1;strokeColor=none;fillColor=none;align=center;verticalAlign=middle;whiteSpace=wrap;rounded=0;fontSize=14;" vertex="1" parent="1">
          <mxGeometry x="540" y="320" width="30" height="30" as="geometry" />
        </mxCell>
        <mxCell id="RoRbaDoEYm9s6KzCHAqS-3" value="" style="ellipse;whiteSpace=wrap;html=1;aspect=fixed;fillColor=#97D077;fillStyle=auto;strokeColor=#000000;" vertex="1" parent="1">
          <mxGeometry x="200" y="160" width="320" height="320" as="geometry" />
        </mxCell>
        <mxCell id="RoRbaDoEYm9s6KzCHAqS-9" value="" style="whiteSpace=wrap;html=1;aspect=fixed;" vertex="1" parent="1">
          <mxGeometry x="240" y="200" width="240" height="240" as="geometry" />
        </mxCell>
        <mxCell id="RoRbaDoEYm9s6KzCHAqS-4" value="" style="endArrow=classic;html=1;rounded=0;" edge="1" parent="1">
          <mxGeometry width="50" height="50" relative="1" as="geometry">
            <mxPoint x="160" y="320" as="sourcePoint" />
            <mxPoint x="560" y="320" as="targetPoint" />
          </mxGeometry>
        </mxCell>
        <mxCell id="RoRbaDoEYm9s6KzCHAqS-5" value="" style="endArrow=classic;html=1;rounded=0;" edge="1" parent="1">
          <mxGeometry width="50" height="50" relative="1" as="geometry">
            <mxPoint x="360" y="520" as="sourcePoint" />
            <mxPoint x="360" y="120" as="targetPoint" />
          </mxGeometry>
        </mxCell>
        <mxCell id="RoRbaDoEYm9s6KzCHAqS-10" value="$$3$$" style="text;html=1;strokeColor=none;fillColor=none;align=center;verticalAlign=middle;whiteSpace=wrap;rounded=0;fontSize=14;" vertex="1" parent="1">
          <mxGeometry x="460" y="320" width="30" height="30" as="geometry" />
        </mxCell>
        <mxCell id="RoRbaDoEYm9s6KzCHAqS-11" value="$$4$$" style="text;html=1;strokeColor=none;fillColor=none;align=center;verticalAlign=middle;whiteSpace=wrap;rounded=0;fontSize=14;" vertex="1" parent="1">
          <mxGeometry x="510" y="320" width="30" height="30" as="geometry" />
        </mxCell>
      </root>
    </mxGraphModel>
  </diagram>
</mxfile>
